<mxfile host="app.diagrams.net" modified="2023-02-08T15:16:49.453Z" agent="5.0 (Windows)" etag="aR-FZUb8i1rxR1OAM0_y" version="20.8.13" type="github">
  <diagram name="Page-1" id="LHVJli9EyM4RDbWxlGZa">
    <mxGraphModel dx="1434" dy="782" grid="1" gridSize="10" guides="1" tooltips="1" connect="1" arrows="1" fold="1" page="1" pageScale="1" pageWidth="850" pageHeight="1100" math="0" shadow="0">
      <root>
        <mxCell id="0" />
        <mxCell id="1" parent="0" />
        <mxCell id="SW4wqdJ035JR8D7hqYMv-8" style="edgeStyle=orthogonalEdgeStyle;rounded=0;orthogonalLoop=1;jettySize=auto;html=1;" edge="1" parent="1" source="SW4wqdJ035JR8D7hqYMv-1">
          <mxGeometry relative="1" as="geometry">
            <mxPoint x="420" y="150" as="targetPoint" />
          </mxGeometry>
        </mxCell>
        <mxCell id="SW4wqdJ035JR8D7hqYMv-1" value="Start" style="ellipse;whiteSpace=wrap;html=1;" vertex="1" parent="1">
          <mxGeometry x="360" y="30" width="120" height="70" as="geometry" />
        </mxCell>
        <mxCell id="SW4wqdJ035JR8D7hqYMv-3" style="edgeStyle=orthogonalEdgeStyle;rounded=0;orthogonalLoop=1;jettySize=auto;html=1;exitX=0.5;exitY=1;exitDx=0;exitDy=0;" edge="1" parent="1" source="SW4wqdJ035JR8D7hqYMv-1" target="SW4wqdJ035JR8D7hqYMv-1">
          <mxGeometry relative="1" as="geometry" />
        </mxCell>
        <mxCell id="SW4wqdJ035JR8D7hqYMv-13" style="edgeStyle=orthogonalEdgeStyle;rounded=0;orthogonalLoop=1;jettySize=auto;html=1;" edge="1" parent="1" source="SW4wqdJ035JR8D7hqYMv-12">
          <mxGeometry relative="1" as="geometry">
            <mxPoint x="500" y="190" as="targetPoint" />
          </mxGeometry>
        </mxCell>
        <mxCell id="SW4wqdJ035JR8D7hqYMv-14" style="edgeStyle=orthogonalEdgeStyle;rounded=0;orthogonalLoop=1;jettySize=auto;html=1;" edge="1" parent="1" source="SW4wqdJ035JR8D7hqYMv-12">
          <mxGeometry relative="1" as="geometry">
            <mxPoint x="340" y="190" as="targetPoint" />
          </mxGeometry>
        </mxCell>
        <mxCell id="SW4wqdJ035JR8D7hqYMv-12" value="roll die?" style="rhombus;whiteSpace=wrap;html=1;rounded=1;" vertex="1" parent="1">
          <mxGeometry x="380" y="150" width="80" height="80" as="geometry" />
        </mxCell>
        <mxCell id="SW4wqdJ035JR8D7hqYMv-16" value="Yes" style="text;strokeColor=none;align=center;fillColor=none;html=1;verticalAlign=middle;whiteSpace=wrap;rounded=0;" vertex="1" parent="1">
          <mxGeometry x="340" y="160" width="60" height="30" as="geometry" />
        </mxCell>
        <mxCell id="SW4wqdJ035JR8D7hqYMv-17" value="No" style="text;strokeColor=none;align=center;fillColor=none;html=1;verticalAlign=middle;whiteSpace=wrap;rounded=0;" vertex="1" parent="1">
          <mxGeometry x="450" y="160" width="60" height="30" as="geometry" />
        </mxCell>
        <mxCell id="SW4wqdJ035JR8D7hqYMv-18" value="Program ends, nothing happens" style="ellipse;whiteSpace=wrap;html=1;rounded=1;" vertex="1" parent="1">
          <mxGeometry x="500" y="150" width="120" height="80" as="geometry" />
        </mxCell>
        <mxCell id="SW4wqdJ035JR8D7hqYMv-25" style="edgeStyle=orthogonalEdgeStyle;rounded=0;orthogonalLoop=1;jettySize=auto;html=1;entryX=0.5;entryY=0;entryDx=0;entryDy=0;" edge="1" parent="1" source="SW4wqdJ035JR8D7hqYMv-21" target="SW4wqdJ035JR8D7hqYMv-26">
          <mxGeometry relative="1" as="geometry">
            <mxPoint x="280" y="360" as="targetPoint" />
          </mxGeometry>
        </mxCell>
        <mxCell id="SW4wqdJ035JR8D7hqYMv-30" value="" style="edgeStyle=orthogonalEdgeStyle;rounded=0;orthogonalLoop=1;jettySize=auto;html=1;" edge="1" parent="1" source="SW4wqdJ035JR8D7hqYMv-21" target="SW4wqdJ035JR8D7hqYMv-29">
          <mxGeometry relative="1" as="geometry" />
        </mxCell>
        <mxCell id="SW4wqdJ035JR8D7hqYMv-33" value="" style="edgeStyle=orthogonalEdgeStyle;rounded=0;orthogonalLoop=1;jettySize=auto;html=1;" edge="1" parent="1" source="SW4wqdJ035JR8D7hqYMv-21" target="SW4wqdJ035JR8D7hqYMv-32">
          <mxGeometry relative="1" as="geometry" />
        </mxCell>
        <mxCell id="SW4wqdJ035JR8D7hqYMv-21" value="&lt;div&gt;Roll the die, get random number&lt;/div&gt;&lt;div&gt;from 1-6&lt;/div&gt;" style="rounded=0;whiteSpace=wrap;html=1;" vertex="1" parent="1">
          <mxGeometry x="220" y="250" width="120" height="60" as="geometry" />
        </mxCell>
        <mxCell id="SW4wqdJ035JR8D7hqYMv-28" style="edgeStyle=orthogonalEdgeStyle;rounded=0;orthogonalLoop=1;jettySize=auto;html=1;entryX=0.5;entryY=0;entryDx=0;entryDy=0;" edge="1" parent="1" source="SW4wqdJ035JR8D7hqYMv-23" target="SW4wqdJ035JR8D7hqYMv-21">
          <mxGeometry relative="1" as="geometry" />
        </mxCell>
        <mxCell id="SW4wqdJ035JR8D7hqYMv-23" value="&lt;div&gt;User input, how&lt;/div&gt;&lt;div&gt;much times to&lt;/div&gt;&lt;div&gt;roll the die&lt;/div&gt;" style="shape=parallelogram;perimeter=parallelogramPerimeter;whiteSpace=wrap;html=1;fixedSize=1;rounded=0;" vertex="1" parent="1">
          <mxGeometry x="220" y="150" width="130" height="60" as="geometry" />
        </mxCell>
        <mxCell id="SW4wqdJ035JR8D7hqYMv-35" value="" style="edgeStyle=orthogonalEdgeStyle;rounded=0;orthogonalLoop=1;jettySize=auto;html=1;" edge="1" parent="1" source="SW4wqdJ035JR8D7hqYMv-26" target="SW4wqdJ035JR8D7hqYMv-34">
          <mxGeometry relative="1" as="geometry" />
        </mxCell>
        <mxCell id="SW4wqdJ035JR8D7hqYMv-26" value="&lt;div&gt;You roll 4-6 more than 50% of&lt;/div&gt;&lt;div&gt;your rolls &lt;/div&gt;" style="rounded=0;whiteSpace=wrap;html=1;" vertex="1" parent="1">
          <mxGeometry x="220" y="350" width="120" height="60" as="geometry" />
        </mxCell>
        <mxCell id="SW4wqdJ035JR8D7hqYMv-44" value="" style="edgeStyle=orthogonalEdgeStyle;rounded=0;orthogonalLoop=1;jettySize=auto;html=1;" edge="1" parent="1" source="SW4wqdJ035JR8D7hqYMv-29" target="SW4wqdJ035JR8D7hqYMv-43">
          <mxGeometry relative="1" as="geometry" />
        </mxCell>
        <mxCell id="SW4wqdJ035JR8D7hqYMv-29" value="&lt;div&gt;You roll 1-3 more than 50% of&lt;/div&gt;&lt;div&gt;your rolls&lt;/div&gt;" style="whiteSpace=wrap;html=1;rounded=0;" vertex="1" parent="1">
          <mxGeometry x="390" y="350" width="120" height="60" as="geometry" />
        </mxCell>
        <mxCell id="SW4wqdJ035JR8D7hqYMv-40" value="" style="edgeStyle=orthogonalEdgeStyle;rounded=0;orthogonalLoop=1;jettySize=auto;html=1;" edge="1" parent="1" source="SW4wqdJ035JR8D7hqYMv-32" target="SW4wqdJ035JR8D7hqYMv-39">
          <mxGeometry relative="1" as="geometry" />
        </mxCell>
        <mxCell id="SW4wqdJ035JR8D7hqYMv-32" value="&lt;div&gt;your 1-3 and&lt;/div&gt;&lt;div&gt;4-6 rolls are 50/50&lt;/div&gt;" style="whiteSpace=wrap;html=1;rounded=0;" vertex="1" parent="1">
          <mxGeometry x="50" y="350" width="120" height="60" as="geometry" />
        </mxCell>
        <mxCell id="SW4wqdJ035JR8D7hqYMv-42" value="" style="edgeStyle=orthogonalEdgeStyle;rounded=0;orthogonalLoop=1;jettySize=auto;html=1;" edge="1" parent="1" source="SW4wqdJ035JR8D7hqYMv-34" target="SW4wqdJ035JR8D7hqYMv-41">
          <mxGeometry relative="1" as="geometry" />
        </mxCell>
        <mxCell id="SW4wqdJ035JR8D7hqYMv-34" value="Put in history" style="whiteSpace=wrap;html=1;rounded=0;" vertex="1" parent="1">
          <mxGeometry x="220" y="450" width="120" height="60" as="geometry" />
        </mxCell>
        <mxCell id="SW4wqdJ035JR8D7hqYMv-59" value="" style="edgeStyle=orthogonalEdgeStyle;rounded=0;orthogonalLoop=1;jettySize=auto;html=1;" edge="1" parent="1" source="SW4wqdJ035JR8D7hqYMv-39" target="SW4wqdJ035JR8D7hqYMv-45">
          <mxGeometry relative="1" as="geometry" />
        </mxCell>
        <mxCell id="SW4wqdJ035JR8D7hqYMv-39" value="Put in history" style="whiteSpace=wrap;html=1;rounded=0;" vertex="1" parent="1">
          <mxGeometry x="50" y="450" width="120" height="60" as="geometry" />
        </mxCell>
        <mxCell id="SW4wqdJ035JR8D7hqYMv-55" value="" style="edgeStyle=orthogonalEdgeStyle;rounded=0;orthogonalLoop=1;jettySize=auto;html=1;" edge="1" parent="1" source="SW4wqdJ035JR8D7hqYMv-41">
          <mxGeometry relative="1" as="geometry">
            <mxPoint x="280" y="650" as="targetPoint" />
          </mxGeometry>
        </mxCell>
        <mxCell id="SW4wqdJ035JR8D7hqYMv-41" value="Your lukcy" style="whiteSpace=wrap;html=1;rounded=0;" vertex="1" parent="1">
          <mxGeometry x="220" y="550" width="120" height="60" as="geometry" />
        </mxCell>
        <mxCell id="SW4wqdJ035JR8D7hqYMv-50" value="" style="edgeStyle=orthogonalEdgeStyle;rounded=0;orthogonalLoop=1;jettySize=auto;html=1;" edge="1" parent="1" source="SW4wqdJ035JR8D7hqYMv-43" target="SW4wqdJ035JR8D7hqYMv-49">
          <mxGeometry relative="1" as="geometry" />
        </mxCell>
        <mxCell id="SW4wqdJ035JR8D7hqYMv-43" value="Put in history" style="whiteSpace=wrap;html=1;rounded=0;" vertex="1" parent="1">
          <mxGeometry x="390" y="450" width="120" height="60" as="geometry" />
        </mxCell>
        <mxCell id="SW4wqdJ035JR8D7hqYMv-52" value="" style="edgeStyle=orthogonalEdgeStyle;rounded=0;orthogonalLoop=1;jettySize=auto;html=1;entryX=0;entryY=0.5;entryDx=0;entryDy=0;" edge="1" parent="1" source="SW4wqdJ035JR8D7hqYMv-45" target="SW4wqdJ035JR8D7hqYMv-68">
          <mxGeometry relative="1" as="geometry">
            <mxPoint x="220" y="680" as="targetPoint" />
          </mxGeometry>
        </mxCell>
        <mxCell id="SW4wqdJ035JR8D7hqYMv-45" value="Meh&amp;nbsp; your average" style="whiteSpace=wrap;html=1;rounded=0;" vertex="1" parent="1">
          <mxGeometry x="50" y="550" width="120" height="60" as="geometry" />
        </mxCell>
        <mxCell id="SW4wqdJ035JR8D7hqYMv-57" value="" style="edgeStyle=orthogonalEdgeStyle;rounded=0;orthogonalLoop=1;jettySize=auto;html=1;entryX=1;entryY=0.5;entryDx=0;entryDy=0;" edge="1" parent="1" source="SW4wqdJ035JR8D7hqYMv-49" target="SW4wqdJ035JR8D7hqYMv-68">
          <mxGeometry relative="1" as="geometry">
            <mxPoint x="340" y="680" as="targetPoint" />
          </mxGeometry>
        </mxCell>
        <mxCell id="SW4wqdJ035JR8D7hqYMv-49" value="Your unlucky" style="whiteSpace=wrap;html=1;rounded=0;" vertex="1" parent="1">
          <mxGeometry x="390" y="550" width="120" height="60" as="geometry" />
        </mxCell>
        <mxCell id="SW4wqdJ035JR8D7hqYMv-66" style="edgeStyle=orthogonalEdgeStyle;rounded=0;orthogonalLoop=1;jettySize=auto;html=1;" edge="1" parent="1">
          <mxGeometry relative="1" as="geometry">
            <mxPoint x="200" y="760" as="targetPoint" />
            <mxPoint x="280" y="710" as="sourcePoint" />
            <Array as="points">
              <mxPoint x="280" y="740" />
              <mxPoint x="200" y="740" />
            </Array>
          </mxGeometry>
        </mxCell>
        <mxCell id="SW4wqdJ035JR8D7hqYMv-72" style="edgeStyle=orthogonalEdgeStyle;rounded=0;orthogonalLoop=1;jettySize=auto;html=1;entryX=1;entryY=0.5;entryDx=0;entryDy=0;" edge="1" parent="1" target="SW4wqdJ035JR8D7hqYMv-1">
          <mxGeometry relative="1" as="geometry">
            <mxPoint x="280" y="740" as="sourcePoint" />
            <Array as="points">
              <mxPoint x="640" y="740" />
              <mxPoint x="640" y="65" />
            </Array>
          </mxGeometry>
        </mxCell>
        <mxCell id="SW4wqdJ035JR8D7hqYMv-68" value="Roll again" style="rhombus;whiteSpace=wrap;html=1;rounded=0;" vertex="1" parent="1">
          <mxGeometry x="240" y="650" width="80" height="80" as="geometry" />
        </mxCell>
        <mxCell id="SW4wqdJ035JR8D7hqYMv-70" value="Yes" style="text;strokeColor=none;align=center;fillColor=none;html=1;verticalAlign=middle;whiteSpace=wrap;rounded=0;" vertex="1" parent="1">
          <mxGeometry x="310" y="710" width="60" height="30" as="geometry" />
        </mxCell>
        <mxCell id="SW4wqdJ035JR8D7hqYMv-71" value="No" style="text;strokeColor=none;align=center;fillColor=none;html=1;verticalAlign=middle;whiteSpace=wrap;rounded=0;" vertex="1" parent="1">
          <mxGeometry x="200" y="710" width="60" height="30" as="geometry" />
        </mxCell>
        <mxCell id="SW4wqdJ035JR8D7hqYMv-73" value="Program ends" style="rounded=1;whiteSpace=wrap;html=1;" vertex="1" parent="1">
          <mxGeometry x="140" y="760" width="120" height="60" as="geometry" />
        </mxCell>
      </root>
    </mxGraphModel>
  </diagram>
</mxfile>
